<svg xmlns="http://www.w3.org/2000/svg"
width="24"
height="32"
     viewBox="0 0 48 64">
  <g transform="translate(4.8,6.4) scale(0.6)">

  <!-- 外层水滴 -->
  <path
    d="M24 2
       C12 2 4 11 4 23
       c0 17 20 39 20 39
       s20-22 20-39
       C44 11 36 2 24 2z"
    fill="#708090" 
  />

  <!-- 内层白色 -->
  <path
    d="M24 8
       C15 8 9 15 9 24
       c0 11 15 28 15 28
       s15-17 15-28
       C39 15 33 8 24 8z"
    fill="white"
  />


  <g
    transform="translate(13,12) scale(0.95)"
    stroke="#708090" 
    fill="none"
    stroke-width="2.4"
    stroke-linecap="round"
    stroke-linejoin="round"
  >
    <path d="M12 2v4"/>
    <path d="m16.2 7.8 2.9-2.9"/>
    <path d="M18 12h4"/>
    <path d="m16.2 16.2 2.9 2.9"/>
    <path d="M12 18v4"/>
    <path d="m4.9 19.1 2.9-2.9"/>
    <path d="M2 12h4"/>
    <path d="m4.9 4.9 2.9 2.9"/>
  </g>
</g>
</svg>