<svg xmlns="http://www.w3.org/2000/svg"
width="24"
height="32"
     viewBox="0 0 48 64">
  <g transform="translate(4.8,6.4) scale(0.6)">

  <!-- 外层水滴 -->
  <path
    d="M24 2
       C12 2 4 11 4 23
       c0 17 20 39 20 39
       s20-22 20-39
       C44 11 36 2 24 2z"
    fill="#A26769" 
  />

  <!-- 内层白色 -->
  <path
    d="M24 8
       C15 8 9 15 9 24
       c0 11 15 28 15 28
       s15-17 15-28
       C39 15 33 8 24 8z"
    fill="white"
  />


  <g
    transform="translate(13,12) scale(0.95)"
    stroke="#A26769" 
    fill="none"
    stroke-width="2.4"
    stroke-linecap="round"
    stroke-linejoin="round"
  >
    <path d="M8 6v6"/>
    <path d="M15 6v6"/>
    <path d="M2 12h19.6"/>
    <path d="M18 18h3s.5-1.7.8-2.8c.1-.4.2-.8.2-1.2 0-.4-.1-.8-.2-1.2l-1.4-5C20.1 6.8 19.1 6 18 6H4a2 2 0 0 0-2 2v10h3"/>
    <circle cx="7" cy="18" r="2"/>
    <path d="M9 18h5"/>
    <circle cx="16" cy="18" r="2"/>
  </g>
</g>
</svg>