<svg xmlns="http://www.w3.org/2000/svg"
     width="48"
     height="64"
     viewBox="0 0 48 64">

  <!-- 外层水滴 -->
  <path
    d="M24 2
       C12 2 4 11 4 23
       c0 17 20 39 20 39
       s20-22 20-39
       C44 11 36 2 24 2z"
    fill="#42a5f5"
  />

  <!-- 内层白色 -->
  <path
    d="M24 8
       C15 8 9 15 9 24
       c0 11 15 28 15 28
       s15-17 15-28
       C39 15 33 8 24 8z"
    fill="white"
  />

  <!-- 摩托车图标 -->
  <g
    transform="translate(13,12) scale(0.95)"
    stroke="#42a5f5"
    fill="none"
    stroke-width="2.4"
    stroke-linecap="round"
    stroke-linejoin="round"
  >

    <path d="m18 14-1-3"/>
    <path d="m3 9 6 2a2 2 0 0 1 2-2h2a2 2 0 0 1 1.99 1.81"/>
    <path d="M8 17h3a1 1 0 0 0 1-1 6 6 0 0 1 6-6 1 1 0 0 0 1-1v-.75A5 5 0 0 0 17 5"/>
    <circle cx="19" cy="17" r="3"/>
    <circle cx="5" cy="17" r="3"/>

  </g>

</svg>