<svg xmlns="http://www.w3.org/2000/svg"
     width="48"
     height="64"
     viewBox="0 0 48 64">

  <!-- 外层水滴 -->
  <path
    d="M24 2
       C12 2 4 11 4 23
       c0 17 20 39 20 39
       s20-22 20-39
       C44 11 36 2 24 2z"
    fill="#B56576" 
  />

  <!-- 内层白色 -->
  <path
    d="M24 8
       C15 8 9 15 9 24
       c0 11 15 28 15 28
       s15-17 15-28
       C39 15 33 8 24 8z"
    fill="white"
  />


  <g
    transform="translate(13,12) scale(0.95)"
    stroke="#B56576" 
    fill="none"
    stroke-width="2.4"
    stroke-linecap="round"
    stroke-linejoin="round"
  >
    <path d="M11 7a16 16 20 0 1 10.98 4.362"/>
    <path d="M12 12a13 13 0 0 1-8.66 5"/>
    <path d="M16.83 13.634a16 16 0 0 1-9.267 7.328"/>
    <path d="M20.66 17A13 13 0 0 0 12 12a13 13 0 0 1 0-10"/>
    <path d="M8.17 15.366a16 16 0 0 1-1.713-11.69"/>
    <circle cx="12" cy="12" r="10"/>

  </g>

</svg>