<svg xmlns="http://www.w3.org/2000/svg"
width="24"
height="32"
     viewBox="0 0 48 64">
  <g transform="translate(4.8,6.4) scale(0.6)">

  <!-- 外层水滴 -->
  <path
    d="M24 2
       C12 2 4 11 4 23
       c0 17 20 39 20 39
       s20-22 20-39
       C44 11 36 2 24 2z"
    fill="#ff9800"
  />

  <!-- 内层白色 -->
  <path
    d="M24 8
       C15 8 9 15 9 24
       c0 11 15 28 15 28
       s15-17 15-28
       C39 15 33 8 24 8z"
    fill="white"
  />

  <!-- 摩托车图标 -->
  <g
    transform="translate(13,12) scale(0.95)"
    stroke="#ff9800"
    fill="none"
    stroke-width="2.4"
    stroke-linecap="round"
    stroke-linejoin="round"
  >

     <path d="M4 19.5v-15A2.5 2.5 0 0 1 6.5 2H19a1 1 0 0 1 1 1v18a1 1 0 0 1-1 1H6.5a1 1 0 0 1 0-5H20"/>
    <path d="M8 11h8"/>
    <path d="M8 7h6"/>

  </g>
</g>
</svg>