<svg xmlns="http://www.w3.org/2000/svg"
width="24"
height="32"
     viewBox="0 0 48 64">
  <g transform="translate(4.8,6.4) scale(0.6)">

  <!-- 外层水滴 -->
  <path
    d="M24 2
       C12 2 4 11 4 23
       c0 17 20 39 20 39
       s20-22 20-39
       C44 11 36 2 24 2z"
    fill="#BC8F8F" 
  />

  <!-- 内层白色 -->
  <path
    d="M24 8
       C15 8 9 15 9 24
       c0 11 15 28 15 28
       s15-17 15-28
       C39 15 33 8 24 8z"
    fill="white"
  />


  <g
    transform="translate(13,12) scale(0.95)"
    stroke="#BC8F8F"  
    fill="none"
    stroke-width="2.4"
    stroke-linecap="round"
    stroke-linejoin="round"
  >
    <path d="m2.37 11.223 8.372-6.777a2 2 0 0 1 2.516 0l8.371 6.777"/>
    <path d="M21 15a1 1 0 0 1 1 1v2a1 1 0 0 1-1 1h-5.25"/>
    <path d="M3 15a1 1 0 0 0-1 1v2a1 1 0 0 0 1 1h9"/>
    <path d="m6.67 15 6.13 4.6a2 2 0 0 0 2.8-.4l3.15-4.2"/>
    <rect width="20" height="4" x="2" y="11" rx="1"/>
  </g>
</g>
</svg>