<svg xmlns="http://www.w3.org/2000/svg"
     width="48"
     height="64"
     viewBox="0 0 48 64">

  <!-- 外层水滴 -->
  <path
    d="M24 2
       C12 2 4 11 4 23
       c0 17 20 39 20 39
       s20-22 20-39
       C44 11 36 2 24 2z"
    fill="#42a5f5"
  />

  <!-- 内层白色 -->
  <path
    d="M24 8
       C15 8 9 15 9 24
       c0 11 15 28 15 28
       s15-17 15-28
       C39 15 33 8 24 8z"
    fill="white"
  />


  <g
    transform="translate(13,12) scale(0.95)"
    stroke="#42a5f5"
    fill="none"
    stroke-width="2.4"
    stroke-linecap="round"
    stroke-linejoin="round"
  >

     <path d="M16 21v-2a4 4 0 0 0-4-4H6a4 4 0 0 0-4 4v2"/>
    <path d="M16 3.128a4 4 0 0 1 0 7.744"/>
    <path d="M22 21v-2a4 4 0 0 0-3-3.87"/>
    <circle cx="9" cy="7" r="4"/>

  </g>

</svg>