<svg xmlns="http://www.w3.org/2000/svg"
     width="48"
     height="64"
     viewBox="0 0 48 64">

  <!-- 外层水滴 -->
  <path
    d="M24 2
       C12 2 4 11 4 23
       c0 17 20 39 20 39
       s20-22 20-39
       C44 11 36 2 24 2z"
    fill="#6B8E23"
  />

  <!-- 内层白色 -->
  <path
    d="M24 8
       C15 8 9 15 9 24
       c0 11 15 28 15 28
       s15-17 15-28
       C39 15 33 8 24 8z"
    fill="white"
  />


  <g
    transform="translate(13,12) scale(0.95)"
    stroke="#6B8E23"
    fill="none"
    stroke-width="2.4"
    stroke-linecap="round"
    stroke-linejoin="round"
  >

    <path d="M15.033 9.44a.647.647 0 0 1 0 1.12l-4.065 2.352a.645.645 0 0 1-.968-.56V7.648a.645.645 0 0 1 .967-.56z"/>
    <path d="M12 17v4"/>
    <path d="M8 21h8"/>
    <rect x="2" y="3" width="20" height="14" rx="2"/>
  </g>

</svg>