<svg xmlns="http://www.w3.org/2000/svg"
width="24"
height="32"
     viewBox="0 0 48 64">
  <g transform="translate(4.8,6.4) scale(0.6)">

  <!-- 外层水滴 -->
  <path
    d="M24 2
       C12 2 4 11 4 23
       c0 17 20 39 20 39
       s20-22 20-39
       C44 11 36 2 24 2z"
    fill="#A0522D" 
  />

  <!-- 内层白色 -->
  <path
    d="M24 8
       C15 8 9 15 9 24
       c0 11 15 28 15 28
       s15-17 15-28
       C39 15 33 8 24 8z"
    fill="white"
  />


  <g
    transform="translate(13,12) scale(0.95)"
    stroke="#A0522D" 
    fill="none"
    stroke-width="2.4"
    stroke-linecap="round"
    stroke-linejoin="round"
  >
    <path d="M12 12h.01"/>
    <path d="M16 6V4a2 2 0 0 0-2-2h-4a2 2 0 0 0-2 2v2"/>
    <path d="M22 13a18.15 18.15 0 0 1-20 0"/>
    <rect width="20" height="14" x="2" y="6" rx="2"/>
  </g>
</g>
</svg>