<svg xmlns="http://www.w3.org/2000/svg"
     width="48"
     height="64"
     viewBox="0 0 48 64">

  <!-- 外层水滴 -->
  <path
    d="M24 2
       C12 2 4 11 4 23
       c0 17 20 39 20 39
       s20-22 20-39
       C44 11 36 2 24 2z"
    fill="#9370DB" 
  />

  <!-- 内层白色 -->
  <path
    d="M24 8
       C15 8 9 15 9 24
       c0 11 15 28 15 28
       s15-17 15-28
       C39 15 33 8 24 8z"
    fill="white"
  />


  <g
    transform="translate(13,12) scale(0.95)"
    stroke="#9370DB" 
    fill="none"
    stroke-width="2.4"
    stroke-linecap="round"
    stroke-linejoin="round"
  >
    <path d="M14 21v-3a2 2 0 0 0-4 0v3"/>
    <path d="M18 4.933V21"/>
    <path d="m4 6 7.106-3.79a2 2 0 0 1 1.788 0L20 6"/>
    <path d="m6 11-3.52 2.147a1 1 0 0 0-.48.854V19a2 2 0 0 0 2 2h16a2 2 0 0 0 2-2v-5a1 1 0 0 0-.48-.853L18 11"/>
    <path d="M6 4.933V21"/>
    <circle cx="12" cy="9" r="2"/>
  </g>

</svg>