<svg xmlns="http://www.w3.org/2000/svg"
     width="48"
     height="64"
     viewBox="0 0 48 64">

  <!-- 外层水滴 -->
  <path
    d="M24 2
       C12 2 4 11 4 23
       c0 17 20 39 20 39
       s20-22 20-39
       C44 11 36 2 24 2z"
    fill="#ff0d00ff"
  />

  <!-- 内层白色 -->
  <path
    d="M24 8
       C15 8 9 15 9 24
       c0 11 15 28 15 28
       s15-17 15-28
       C39 15 33 8 24 8z"
    fill="white"
  />

  <!-- 摩托车图标 -->
  <g
    transform="translate(13,12) scale(0.95)"
    stroke="#ff0d00ff"
    fill="none"
    stroke-width="2.4"
    stroke-linecap="round"
    stroke-linejoin="round"
  >

    <path d="M10 12h.01"/>
    <path d="M18 9V6a2 2 0 0 0-2-2H8a2 2 0 0 0-2 2v14"/>
    <path d="M2 20h8"/>
    <path d="M20 17v-2a2 2 0 1 0-4 0v2"/>
    <rect x="14" y="17" width="8" height="5" rx="1"/>

  </g>

</svg>