<svg xmlns="http://www.w3.org/2000/svg"
width="24"
height="32"
     viewBox="0 0 48 64">
  <g transform="translate(4.8,6.4) scale(0.6)">

  <!-- 外层水滴 -->
  <path
    d="M24 2
       C12 2 4 11 4 23
       c0 17 20 39 20 39
       s20-22 20-39
       C44 11 36 2 24 2z"
    fill="#556B2F" 
  />

  <!-- 内层白色 -->
  <path
    d="M24 8
       C15 8 9 15 9 24
       c0 11 15 28 15 28
       s15-17 15-28
       C39 15 33 8 24 8z"
    fill="white"
  />


  <g
    transform="translate(13,12) scale(0.95)"
    stroke="#556B2F" 
    fill="none"
    stroke-width="2.4"
    stroke-linecap="round"
    stroke-linejoin="round"
  >
    <path d="M17 12H3a1 1 0 0 0-1 1v2a1 1 0 0 0 1 1h14"/>
    <path d="M18 8c0-2.5-2-2.5-2-5"/>
    <path d="M21 16a1 1 0 0 0 1-1v-2a1 1 0 0 0-1-1"/>
    <path d="M22 8c0-2.5-2-2.5-2-5"/>
    <path d="M7 12v4"/>
  </g>
</g>
</svg>