<svg xmlns="http://www.w3.org/2000/svg"
     width="48"
     height="64"
     viewBox="0 0 48 64">

  <!-- 外层水滴 -->
  <path
    d="M24 2
       C12 2 4 11 4 23
       c0 17 20 39 20 39
       s20-22 20-39
       C44 11 36 2 24 2z"
    fill="#D2691E"
  />

  <!-- 内层白色 -->
  <path
    d="M24 8
       C15 8 9 15 9 24
       c0 11 15 28 15 28
       s15-17 15-28
       C39 15 33 8 24 8z"
    fill="white"
  />


  <g
    transform="translate(13,12) scale(0.95)"
    stroke="#D2691E"
    fill="none"
    stroke-width="2.4"
    stroke-linecap="round"
    stroke-linejoin="round"
  >
     <path d="M18.715 13.186C18.29 11.858 17.384 10.607 16 9.5c-2-1.6-3.5-4-4-6.5a10.7 10.7 0 0 1-.884 2.586"/>
    <path d="m2 2 20 20"/>
    <path d="M8.795 8.797A11 11 0 0 1 8 9.5C6 11.1 5 13 5 15a7 7 0 0 0 13.222 3.208"/>
  </g>

</svg>